<svg width="700" height="740" viewBox="0 0 700 740" fill="none" xmlns="http://www.w3.org/2000/svg">
  <defs>
    <style>@import url('https://fonts.googleapis.com/css2?family=Gaegu:wght@400;700&amp;family=Space+Mono&amp;display=swap');</style>
    <clipPath id="sc"><rect width="300" height="650" rx="25"/></clipPath>
  </defs>

  <!-- Canvas -->
  <rect width="700" height="740" fill="#cfc9bb"/>

  <!-- Labels -->
  <text x="160" y="34" text-anchor="middle" fill="#6f6b62" font-size="11" font-family="'Space Mono', monospace">기본 상태</text>
  <text x="540" y="34" text-anchor="middle" fill="#6f6b62" font-size="11" font-family="'Space Mono', monospace">체크 후 상태</text>

  <!-- ════ LEFT SCREEN ════ -->
  <g transform="translate(10, 44)">
    <rect width="300" height="650" rx="25" fill="#fffefb" stroke="#2c2a26" stroke-width="2"/>
    <g clip-path="url(#sc)">

      <!-- Status bar -->
      <text x="16" y="20" fill="#6f6b62" font-size="10" font-family="'Space Mono', monospace">9:41</text>
      <circle cx="254" cy="15" r="2.5" fill="#6f6b62"/>
      <circle cx="262" cy="15" r="2.5" fill="#6f6b62"/>
      <circle cx="270" cy="15" r="2.5" fill="#6f6b62"/>
      <text x="276" y="20" fill="#6f6b62" font-size="10" font-family="'Space Mono', monospace">56%</text>

      <!-- App bar -->
      <rect x="16" y="34" width="30" height="30" rx="9" fill="#fffefb" stroke="#2c2a26" stroke-width="1.5"/>
      <path d="M32 41 l-6 8 6 8" stroke="#2c2a26" stroke-width="1.8" stroke-linecap="round" stroke-linejoin="round" fill="none"/>
      <text x="58" y="51" fill="#2c2a26" font-size="21" font-weight="700" font-family="'Gaegu', cursive">출근 가방</text>
      <text x="58" y="65" fill="#6f6b62" font-size="9.5" font-family="'Space Mono', monospace">챙기셨나요?</text>

      <!-- Divider -->
      <line x1="0" y1="78" x2="300" y2="78" stroke="#cfcabd" stroke-width="1"/>

      <!-- Map (y=78, h=90) -->
      <rect x="0" y="78" width="300" height="90" fill="#e3dfd5"/>
      <line x1="75" y1="78" x2="75" y2="168" stroke="#cfc9bb" stroke-width="0.6"/>
      <line x1="150" y1="78" x2="150" y2="168" stroke="#cfc9bb" stroke-width="0.6"/>
      <line x1="225" y1="78" x2="225" y2="168" stroke="#cfc9bb" stroke-width="0.6"/>
      <line x1="0" y1="123" x2="300" y2="123" stroke="#cfc9bb" stroke-width="0.6"/>
      <rect x="0" y="118" width="300" height="8" fill="#fffefb" opacity="0.7"/>
      <rect x="145" y="78" width="8" height="90" fill="#fffefb" opacity="0.7"/>
      <circle cx="150" cy="123" r="28" stroke="#e8674a" stroke-width="1.2" stroke-dasharray="4 3" fill="#e8674a" fill-opacity="0.08"/>
      <path d="M150 108 C142 108 136 114 136 122 C136 132 150 143 150 143 C150 143 164 132 164 122 C164 114 158 108 150 108 Z" fill="#e8674a" stroke="#2c2a26" stroke-width="1.2"/>
      <circle cx="150" cy="120" r="5" fill="white"/>
      <rect x="157" y="109" width="22" height="16" rx="4" fill="#fffefb" stroke="#cfcabd" stroke-width="1"/>
      <text x="168" y="121" text-anchor="middle" fill="#2c2a26" font-size="10" font-family="'Gaegu', cursive">집</text>

      <!-- Divider -->
      <line x1="0" y1="168" x2="300" y2="168" stroke="#cfcabd" stroke-width="1"/>

      <!-- Address -->
      <path d="M20 178 C20 178 14 173 14 177.5 C14 182 20 187 20 187 C20 187 26 182 26 177.5 C26 173 20 178 Z" fill="#e8674a"/>
      <circle cx="20" cy="177" r="2.5" fill="white"/>
      <text x="33" y="186" fill="#6f6b62" font-size="12" font-family="'Gaegu', cursive">집 · 서울 마포구 합정동</text>

      <!-- Dashed separator -->
      <line x1="16" y1="200" x2="284" y2="200" stroke="#cfcabd" stroke-width="1" stroke-dasharray="4 3"/>

      <!-- 모두 챙겼어요 button -->
      <rect x="16" y="208" width="268" height="36" rx="12" fill="#fffefb" stroke="#2c2a26" stroke-width="1.5"/>
      <rect x="26" y="219" width="14" height="14" rx="3" fill="none" stroke="#2c2a26" stroke-width="1.5"/>
      <text x="152" y="230" text-anchor="middle" fill="#2c2a26" font-size="14" font-family="'Gaegu', cursive">모두 챙겼어요</text>

      <!-- Dashed separator -->
      <line x1="16" y1="252" x2="284" y2="252" stroke="#cfcabd" stroke-width="1" stroke-dasharray="4 3"/>

      <!-- Row 1: 📱 휴대폰 / 👛 지갑 -->
      <rect x="16" y="260" width="130" height="42" rx="11" fill="#fffefb" stroke="#2c2a26" stroke-width="1.5"/>
      <rect x="27" y="274" width="14" height="14" rx="3" fill="none" stroke="#2c2a26" stroke-width="1.5"/>
      <rect x="47" y="271" width="20" height="20" rx="5" fill="#ffe7a0" stroke="#2c2a26" stroke-width="1"/>
      <text x="57" y="281" text-anchor="middle" dominant-baseline="central" font-size="10">📱</text>
      <text x="110" y="287" text-anchor="middle" fill="#2c2a26" font-size="14" font-family="'Gaegu', cursive">휴대폰</text>

      <rect x="154" y="260" width="130" height="42" rx="11" fill="#fffefb" stroke="#2c2a26" stroke-width="1.5"/>
      <rect x="165" y="274" width="14" height="14" rx="3" fill="none" stroke="#2c2a26" stroke-width="1.5"/>
      <rect x="185" y="271" width="20" height="20" rx="5" fill="#ffe7a0" stroke="#2c2a26" stroke-width="1"/>
      <text x="195" y="281" text-anchor="middle" dominant-baseline="central" font-size="10">👛</text>
      <text x="248" y="287" text-anchor="middle" fill="#2c2a26" font-size="14" font-family="'Gaegu', cursive">지갑</text>

      <!-- Row 2: 🔑 차키 / 💊 약 -->
      <rect x="16" y="310" width="130" height="42" rx="11" fill="#fffefb" stroke="#2c2a26" stroke-width="1.5"/>
      <rect x="27" y="324" width="14" height="14" rx="3" fill="none" stroke="#2c2a26" stroke-width="1.5"/>
      <rect x="47" y="321" width="20" height="20" rx="5" fill="#ffe7a0" stroke="#2c2a26" stroke-width="1"/>
      <text x="57" y="331" text-anchor="middle" dominant-baseline="central" font-size="10">🔑</text>
      <text x="108" y="337" text-anchor="middle" fill="#2c2a26" font-size="14" font-family="'Gaegu', cursive">차키</text>

      <rect x="154" y="310" width="130" height="42" rx="11" fill="#fffefb" stroke="#2c2a26" stroke-width="1.5"/>
      <rect x="165" y="324" width="14" height="14" rx="3" fill="none" stroke="#2c2a26" stroke-width="1.5"/>
      <rect x="185" y="321" width="20" height="20" rx="5" fill="#ffe7a0" stroke="#2c2a26" stroke-width="1"/>
      <text x="195" y="331" text-anchor="middle" dominant-baseline="central" font-size="10">💊</text>
      <text x="248" y="337" text-anchor="middle" fill="#2c2a26" font-size="14" font-family="'Gaegu', cursive">약</text>

      <!-- Row 3: 🎒 가방 / 🎧 이어폰 -->
      <rect x="16" y="360" width="130" height="42" rx="11" fill="#fffefb" stroke="#2c2a26" stroke-width="1.5"/>
      <rect x="27" y="374" width="14" height="14" rx="3" fill="none" stroke="#2c2a26" stroke-width="1.5"/>
      <rect x="47" y="371" width="20" height="20" rx="5" fill="#ffe7a0" stroke="#2c2a26" stroke-width="1"/>
      <text x="57" y="381" text-anchor="middle" dominant-baseline="central" font-size="10">🎒</text>
      <text x="108" y="387" text-anchor="middle" fill="#2c2a26" font-size="14" font-family="'Gaegu', cursive">가방</text>

      <rect x="154" y="360" width="130" height="42" rx="11" fill="#fffefb" stroke="#2c2a26" stroke-width="1.5"/>
      <rect x="165" y="374" width="14" height="14" rx="3" fill="none" stroke="#2c2a26" stroke-width="1.5"/>
      <rect x="185" y="371" width="20" height="20" rx="5" fill="#ffe7a0" stroke="#2c2a26" stroke-width="1"/>
      <text x="195" y="381" text-anchor="middle" dominant-baseline="central" font-size="10">🎧</text>
      <text x="252" y="387" text-anchor="middle" fill="#2c2a26" font-size="14" font-family="'Gaegu', cursive">이어폰</text>

      <!-- Progress -->
      <text x="150" y="420" text-anchor="middle" fill="#cfcabd" font-size="9.5" font-family="'Space Mono', monospace">0 / 6 챙겼어요</text>
      <text x="16" y="433" fill="#e8674a" font-size="9.5" font-family="'Space Mono', monospace">↳ 체크 전 CTA 비활성</text>

      <!-- CTA disabled -->
      <rect x="16" y="565" width="268" height="42" rx="14" fill="#e3ded2" stroke="#2c2a26" stroke-width="1.5"/>
      <text x="150" y="591" text-anchor="middle" fill="#a8a294" font-size="17" font-weight="700" font-family="'Gaegu', cursive">다 챙겼어요</text>

      <!-- Tab bar -->
      <line x1="0" y1="617" x2="300" y2="617" stroke="#2c2a26" stroke-width="2"/>
      <rect x="0" y="617" width="300" height="33" fill="#fffefb"/>
      <text x="50" y="638" text-anchor="middle" fill="#6f6b62" font-size="10" font-family="'Gaegu', cursive">내 가방</text>
      <text x="150" y="638" text-anchor="middle" fill="#e8674a" font-size="10" font-family="'Gaegu', cursive">알림</text>
      <text x="250" y="638" text-anchor="middle" fill="#6f6b62" font-size="10" font-family="'Gaegu', cursive">설정</text>
    </g>
  </g>

  <!-- ════ RIGHT SCREEN ════ -->
  <g transform="translate(390, 44)">
    <rect width="300" height="650" rx="25" fill="#fffefb" stroke="#2c2a26" stroke-width="2"/>
    <g clip-path="url(#sc)">

      <!-- Status bar -->
      <text x="16" y="20" fill="#6f6b62" font-size="10" font-family="'Space Mono', monospace">9:41</text>
      <circle cx="254" cy="15" r="2.5" fill="#6f6b62"/>
      <circle cx="262" cy="15" r="2.5" fill="#6f6b62"/>
      <circle cx="270" cy="15" r="2.5" fill="#6f6b62"/>
      <text x="276" y="20" fill="#6f6b62" font-size="10" font-family="'Space Mono', monospace">56%</text>

      <!-- App bar -->
      <rect x="16" y="34" width="30" height="30" rx="9" fill="#fffefb" stroke="#2c2a26" stroke-width="1.5"/>
      <path d="M32 41 l-6 8 6 8" stroke="#2c2a26" stroke-width="1.8" stroke-linecap="round" stroke-linejoin="round" fill="none"/>
      <text x="58" y="51" fill="#2c2a26" font-size="21" font-weight="700" font-family="'Gaegu', cursive">출근 가방</text>
      <text x="58" y="65" fill="#6f6b62" font-size="9.5" font-family="'Space Mono', monospace">챙기셨나요?</text>

      <!-- Divider -->
      <line x1="0" y1="78" x2="300" y2="78" stroke="#cfcabd" stroke-width="1"/>

      <!-- Map (same) -->
      <rect x="0" y="78" width="300" height="90" fill="#e3dfd5"/>
      <line x1="75" y1="78" x2="75" y2="168" stroke="#cfc9bb" stroke-width="0.6"/>
      <line x1="150" y1="78" x2="150" y2="168" stroke="#cfc9bb" stroke-width="0.6"/>
      <line x1="225" y1="78" x2="225" y2="168" stroke="#cfc9bb" stroke-width="0.6"/>
      <line x1="0" y1="123" x2="300" y2="123" stroke="#cfc9bb" stroke-width="0.6"/>
      <rect x="0" y="118" width="300" height="8" fill="#fffefb" opacity="0.7"/>
      <rect x="145" y="78" width="8" height="90" fill="#fffefb" opacity="0.7"/>
      <circle cx="150" cy="123" r="28" stroke="#e8674a" stroke-width="1.2" stroke-dasharray="4 3" fill="#e8674a" fill-opacity="0.08"/>
      <path d="M150 108 C142 108 136 114 136 122 C136 132 150 143 150 143 C150 143 164 132 164 122 C164 114 158 108 150 108 Z" fill="#e8674a" stroke="#2c2a26" stroke-width="1.2"/>
      <circle cx="150" cy="120" r="5" fill="white"/>
      <rect x="157" y="109" width="22" height="16" rx="4" fill="#fffefb" stroke="#cfcabd" stroke-width="1"/>
      <text x="168" y="121" text-anchor="middle" fill="#2c2a26" font-size="10" font-family="'Gaegu', cursive">집</text>

      <!-- Divider -->
      <line x1="0" y1="168" x2="300" y2="168" stroke="#cfcabd" stroke-width="1"/>

      <!-- Address -->
      <path d="M20 178 C20 178 14 173 14 177.5 C14 182 20 187 20 187 C20 187 26 182 26 177.5 C26 173 20 178 Z" fill="#e8674a"/>
      <circle cx="20" cy="177" r="2.5" fill="white"/>
      <text x="33" y="186" fill="#6f6b62" font-size="12" font-family="'Gaegu', cursive">집 · 서울 마포구 합정동</text>

      <!-- Dashed separator -->
      <line x1="16" y1="200" x2="284" y2="200" stroke="#cfcabd" stroke-width="1" stroke-dasharray="4 3"/>

      <!-- 모두 챙겼어요 button (unchecked, 3/6 partial) -->
      <rect x="16" y="208" width="268" height="36" rx="12" fill="#fffefb" stroke="#2c2a26" stroke-width="1.5"/>
      <rect x="26" y="219" width="14" height="14" rx="3" fill="none" stroke="#2c2a26" stroke-width="1.5"/>
      <text x="152" y="230" text-anchor="middle" fill="#2c2a26" font-size="14" font-family="'Gaegu', cursive">모두 챙겼어요</text>

      <!-- Dashed separator -->
      <line x1="16" y1="252" x2="284" y2="252" stroke="#cfcabd" stroke-width="1" stroke-dasharray="4 3"/>

      <!-- Row 1: 📱 CHECKED / 👛 CHECKED -->
      <rect x="16" y="260" width="130" height="42" rx="11" fill="#fbe4dd" stroke="#e8674a" stroke-width="1.5"/>
      <rect x="27" y="274" width="14" height="14" rx="3" fill="#e8674a"/>
      <path d="M29 281 l3.5 3.5 6.5-6.5" stroke="white" stroke-width="1.8" stroke-linecap="round" stroke-linejoin="round" fill="none"/>
      <rect x="47" y="271" width="20" height="20" rx="5" fill="#ffe7a0" stroke="#e8674a" stroke-width="1"/>
      <text x="57" y="281" text-anchor="middle" dominant-baseline="central" font-size="10">📱</text>
      <text x="110" y="287" text-anchor="middle" fill="#e8674a" font-size="14" font-family="'Gaegu', cursive">휴대폰</text>

      <rect x="154" y="260" width="130" height="42" rx="11" fill="#fbe4dd" stroke="#e8674a" stroke-width="1.5"/>
      <rect x="165" y="274" width="14" height="14" rx="3" fill="#e8674a"/>
      <path d="M167 281 l3.5 3.5 6.5-6.5" stroke="white" stroke-width="1.8" stroke-linecap="round" stroke-linejoin="round" fill="none"/>
      <rect x="185" y="271" width="20" height="20" rx="5" fill="#ffe7a0" stroke="#e8674a" stroke-width="1"/>
      <text x="195" y="281" text-anchor="middle" dominant-baseline="central" font-size="10">👛</text>
      <text x="248" y="287" text-anchor="middle" fill="#e8674a" font-size="14" font-family="'Gaegu', cursive">지갑</text>

      <!-- Row 2: 🔑 unchecked / 💊 unchecked -->
      <rect x="16" y="310" width="130" height="42" rx="11" fill="#fffefb" stroke="#2c2a26" stroke-width="1.5"/>
      <rect x="27" y="324" width="14" height="14" rx="3" fill="none" stroke="#2c2a26" stroke-width="1.5"/>
      <rect x="47" y="321" width="20" height="20" rx="5" fill="#ffe7a0" stroke="#2c2a26" stroke-width="1"/>
      <text x="57" y="331" text-anchor="middle" dominant-baseline="central" font-size="10">🔑</text>
      <text x="108" y="337" text-anchor="middle" fill="#2c2a26" font-size="14" font-family="'Gaegu', cursive">차키</text>

      <rect x="154" y="310" width="130" height="42" rx="11" fill="#fffefb" stroke="#2c2a26" stroke-width="1.5"/>
      <rect x="165" y="324" width="14" height="14" rx="3" fill="none" stroke="#2c2a26" stroke-width="1.5"/>
      <rect x="185" y="321" width="20" height="20" rx="5" fill="#ffe7a0" stroke="#2c2a26" stroke-width="1"/>
      <text x="195" y="331" text-anchor="middle" dominant-baseline="central" font-size="10">💊</text>
      <text x="248" y="337" text-anchor="middle" fill="#2c2a26" font-size="14" font-family="'Gaegu', cursive">약</text>

      <!-- Row 3: 🎒 CHECKED / 🎧 unchecked -->
      <rect x="16" y="360" width="130" height="42" rx="11" fill="#fbe4dd" stroke="#e8674a" stroke-width="1.5"/>
      <rect x="27" y="374" width="14" height="14" rx="3" fill="#e8674a"/>
      <path d="M29 381 l3.5 3.5 6.5-6.5" stroke="white" stroke-width="1.8" stroke-linecap="round" stroke-linejoin="round" fill="none"/>
      <rect x="47" y="371" width="20" height="20" rx="5" fill="#ffe7a0" stroke="#e8674a" stroke-width="1"/>
      <text x="57" y="381" text-anchor="middle" dominant-baseline="central" font-size="10">🎒</text>
      <text x="108" y="387" text-anchor="middle" fill="#e8674a" font-size="14" font-family="'Gaegu', cursive">가방</text>

      <rect x="154" y="360" width="130" height="42" rx="11" fill="#fffefb" stroke="#2c2a26" stroke-width="1.5"/>
      <rect x="165" y="374" width="14" height="14" rx="3" fill="none" stroke="#2c2a26" stroke-width="1.5"/>
      <rect x="185" y="371" width="20" height="20" rx="5" fill="#ffe7a0" stroke="#2c2a26" stroke-width="1"/>
      <text x="195" y="381" text-anchor="middle" dominant-baseline="central" font-size="10">🎧</text>
      <text x="252" y="387" text-anchor="middle" fill="#2c2a26" font-size="14" font-family="'Gaegu', cursive">이어폰</text>

      <!-- Progress 3/6 -->
      <text x="150" y="420" text-anchor="middle" fill="#e8674a" font-size="9.5" font-family="'Space Mono', monospace">3 / 6 챙겼어요</text>
      <rect x="16" y="428" width="268" height="4" rx="2" fill="#e3ded2"/>
      <rect x="16" y="428" width="134" height="4" rx="2" fill="#e8674a"/>
      <text x="16" y="442" fill="#e8674a" font-size="9.5" font-family="'Space Mono', monospace">↳ 하나라도 체크 시 CTA 활성</text>

      <!-- CTA active -->
      <rect x="16" y="565" width="268" height="42" rx="14" fill="#e8674a" stroke="#2c2a26" stroke-width="1.5"/>
      <text x="150" y="591" text-anchor="middle" fill="white" font-size="17" font-weight="700" font-family="'Gaegu', cursive">다 챙겼어요</text>

      <!-- Tab bar -->
      <line x1="0" y1="617" x2="300" y2="617" stroke="#2c2a26" stroke-width="2"/>
      <rect x="0" y="617" width="300" height="33" fill="#fffefb"/>
      <text x="50" y="638" text-anchor="middle" fill="#6f6b62" font-size="10" font-family="'Gaegu', cursive">내 가방</text>
      <text x="150" y="638" text-anchor="middle" fill="#e8674a" font-size="10" font-family="'Gaegu', cursive">알림</text>
      <text x="250" y="638" text-anchor="middle" fill="#6f6b62" font-size="10" font-family="'Gaegu', cursive">설정</text>
    </g>
  </g>
</svg>
